<svg width="34" height="33" viewBox="0 0 34 33" fill="none" xmlns="http://www.w3.org/2000/svg">
<path d="M17.3333 20.625C19.6114 20.625 21.4583 18.7782 21.4583 16.5C21.4583 14.2218 19.6114 12.375 17.3333 12.375C15.0551 12.375 13.2083 14.2218 13.2083 16.5C13.2083 18.7782 15.0551 20.625 17.3333 20.625Z" stroke="#7CC5B1" stroke-width="2" stroke-linecap="round" stroke-linejoin="round"/>
<path d="M17.3333 22.6875C17.3333 23.9113 16.9704 25.1076 16.2905 26.1251C15.6106 27.1426 14.6442 27.9357 13.5136 28.404C12.383 28.8723 11.1389 28.9949 9.93863 28.7561C8.73838 28.5174 7.63587 27.9281 6.77053 27.0627C5.90519 26.1974 5.31589 25.0949 5.07715 23.8946C4.8384 22.6944 4.96093 21.4503 5.42925 20.3196C5.89757 19.189 6.69063 18.2227 7.70816 17.5428C8.72569 16.8629 9.92198 16.5 11.1458 16.5C9.92198 16.5 8.72569 16.1371 7.70816 15.4572C6.69063 14.7773 5.89757 13.811 5.42925 12.6804C4.96093 11.5497 4.8384 10.3056 5.07715 9.10538C5.31589 7.90512 5.90519 6.80262 6.77053 5.93728C7.63587 5.07194 8.73838 4.48264 9.93863 4.24389C11.1389 4.00515 12.383 4.12768 13.5136 4.596C14.6442 5.06432 15.6106 5.85738 16.2905 6.87491C16.9704 7.89244 17.3333 9.08873 17.3333 10.3125C17.3333 9.08873 17.6961 7.89244 18.376 6.87491C19.0559 5.85738 20.0223 5.06432 21.1529 4.596C22.2835 4.12768 23.5276 4.00515 24.7279 4.24389C25.9281 4.48264 27.0306 5.07194 27.896 5.93728C28.7613 6.80262 29.3506 7.90512 29.5894 9.10538C29.8281 10.3056 29.7056 11.5497 29.2373 12.6804C28.7689 13.811 27.9759 14.7773 26.9583 15.4572C25.9408 16.1371 24.7445 16.5 23.5208 16.5C24.7445 16.5 25.9408 16.8629 26.9583 17.5428C27.9759 18.2227 28.7689 19.189 29.2373 20.3196C29.7056 21.4503 29.8281 22.6944 29.5894 23.8946C29.3506 25.0949 28.7613 26.1974 27.896 27.0627C27.0306 27.9281 25.9281 28.5174 24.7279 28.7561C23.5276 28.9949 22.2835 28.8723 21.1529 28.404C20.0223 27.9357 19.0559 27.1426 18.376 26.1251C17.6961 25.1076 17.3333 23.9113 17.3333 22.6875Z" stroke="#7CC5B1" stroke-width="3" stroke-linecap="round" stroke-linejoin="round"/>
<path d="M17.3333 10.3125V12.375" stroke="#7CC5B1" stroke-width="2" stroke-linecap="round" stroke-linejoin="round"/>
<path d="M11.1458 16.5H13.2083" stroke="#7CC5B1" stroke-width="2" stroke-linecap="round" stroke-linejoin="round"/>
<path d="M23.5208 16.5H21.4583" stroke="#7CC5B1" stroke-width="2" stroke-linecap="round" stroke-linejoin="round"/>
<path d="M17.3333 22.6875V20.625" stroke="#7CC5B1" stroke-width="2" stroke-linecap="round" stroke-linejoin="round"/>
<path d="M11.8333 11L14.4183 13.585" stroke="#7CC5B1" stroke-width="3" stroke-linecap="round" stroke-linejoin="round"/>
<path d="M20.2483 13.585L22.8333 11" stroke="#7CC5B1" stroke-width="3" stroke-linecap="round" stroke-linejoin="round"/>
<path d="M11.8333 22L14.4183 19.415" stroke="#7CC5B1" stroke-width="3" stroke-linecap="round" stroke-linejoin="round"/>
<path d="M20.2483 19.415L22.8333 22" stroke="#7CC5B1" stroke-width="3" stroke-linecap="round" stroke-linejoin="round"/>
</svg>
