<svg width="34" height="33" viewBox="0 0 34 33" fill="none" xmlns="http://www.w3.org/2000/svg">
<path d="M30.9165 16.5H27.5065C26.9056 16.4987 26.3208 16.6943 25.8415 17.0568C25.3623 17.4194 25.015 17.9289 24.8528 18.5075L21.6215 30.0025C21.6007 30.0739 21.5573 30.1366 21.4978 30.1813C21.4383 30.2259 21.3659 30.25 21.2915 30.25C21.2171 30.25 21.1448 30.2259 21.0853 30.1813C21.0258 30.1366 20.9823 30.0739 20.9615 30.0025L13.3715 2.9975C13.3507 2.9261 13.3073 2.86338 13.2478 2.81875C13.1883 2.77412 13.1159 2.75 13.0415 2.75C12.9671 2.75 12.8948 2.77412 12.8353 2.81875C12.7758 2.86338 12.7323 2.9261 12.7115 2.9975L9.48025 14.4925C9.31864 15.0688 8.9734 15.5767 8.49694 15.939C8.02048 16.3013 7.43882 16.4983 6.84025 16.5H3.4165" stroke="#7CC5B1" stroke-width="3" stroke-linecap="round" stroke-linejoin="round"/>
</svg>
