<svg width="22" height="22" viewBox="0 0 22 22" fill="none" xmlns="http://www.w3.org/2000/svg">
<path d="M18.3334 9.16659C18.3334 13.7435 13.256 18.5102 11.551 19.9823C11.3922 20.1018 11.1988 20.1664 11.0001 20.1664C10.8013 20.1664 10.608 20.1018 10.4492 19.9823C8.74416 18.5102 3.66675 13.7435 3.66675 9.16659C3.66675 7.22166 4.43937 5.3564 5.81463 3.98114C7.1899 2.60587 9.05516 1.83325 11.0001 1.83325C12.945 1.83325 14.8103 2.60587 16.1855 3.98114C17.5608 5.3564 18.3334 7.22166 18.3334 9.16659Z" stroke="#8B9D83" stroke-width="1.5" stroke-linecap="round" stroke-linejoin="round"/>
<path d="M11 11.9167C12.5188 11.9167 13.75 10.6855 13.75 9.16675C13.75 7.64796 12.5188 6.41675 11 6.41675C9.48122 6.41675 8.25 7.64796 8.25 9.16675C8.25 10.6855 9.48122 11.9167 11 11.9167Z" stroke="#8B9D83" stroke-width="1.5" stroke-linecap="round" stroke-linejoin="round"/>
</svg>
