<svg width="71" height="54" viewBox="0 0 71 54" fill="none" xmlns="http://www.w3.org/2000/svg">
<path d="M7.64374 41.7517C6.31318 40.4236 5.13156 39.0135 4.08195 37.5599C2.25911 38.6999 0.907754 39.7681 0.249479 40.3169C0.121652 40.4233 0.0364253 40.572 0.00936195 40.7359C-0.0177014 40.8998 0.0152045 41.068 0.102071 41.2097C1.47007 43.4467 7.422 52.373 16.0841 53.7986C19.9136 54.4288 23.7119 53.5003 26.9331 52.1236C21.1846 50.6544 13.5955 47.6929 7.64374 41.7517ZM66.9182 37.5599C65.8685 39.0137 64.6868 40.4237 63.3563 41.7519C57.4043 47.6931 49.8154 50.6547 44.0669 52.1236C47.2882 53.5003 51.0864 54.4288 54.9159 53.7986C63.578 52.3731 69.5299 43.4468 70.8979 41.2097C70.9848 41.068 71.0177 40.8998 70.9907 40.7359C70.9636 40.572 70.8784 40.4233 70.7505 40.3169C70.0924 39.7681 68.741 38.6997 66.9182 37.5599ZM22.127 16.2019C22.8817 13.1978 23.9614 10.4235 25.1416 7.96723C21.797 4.87732 18.656 2.89032 17.2949 2.0904C17.2073 2.03885 17.1095 2.00715 17.0083 1.99755C16.9071 1.98795 16.8051 2.00069 16.7094 2.03486C16.6137 2.06903 16.5267 2.1238 16.4546 2.19528C16.3824 2.26677 16.3269 2.35321 16.292 2.44849C15.7368 3.95947 14.5337 7.60167 13.9222 12.2438C16.5921 13.2154 19.4081 14.5016 22.127 16.2019ZM57.0778 12.2438C56.4664 7.60167 55.2632 3.95947 54.708 2.44849C54.6731 2.35319 54.6176 2.26673 54.5455 2.19524C54.4734 2.12374 54.3864 2.06896 54.2907 2.03479C54.195 2.00061 54.0929 1.98788 53.9917 1.99749C53.8905 2.0071 53.7927 2.03882 53.7051 2.0904C52.3441 2.89018 49.2031 4.87732 45.8584 7.96723C47.0386 10.4235 48.1182 13.1977 48.873 16.2019C51.5919 14.5016 54.4079 13.2154 57.0778 12.2438ZM21.0425 24.6907C21.0425 23.309 21.1332 21.9536 21.2964 20.6298C13.203 14.9882 3.60354 13.7313 0.768528 13.4752C0.665636 13.4658 0.561936 13.4791 0.464779 13.5142C0.367623 13.5493 0.279388 13.6053 0.20633 13.6782C0.133271 13.7511 0.0771777 13.8392 0.0420254 13.9362C0.00687304 14.0332 -0.00647749 14.1367 0.00292012 14.2394C0.304809 17.5678 1.99203 30.2379 10.5852 38.8155C16.2998 44.5195 23.8266 47.1747 29.2094 48.4023C25.8249 43.5012 21.0425 34.7871 21.0425 24.6907ZM70.2315 13.4752C67.3965 13.7313 57.7971 14.9882 49.7036 20.6299C49.867 21.9536 49.9575 23.309 49.9575 24.6907C49.9575 34.7872 45.175 43.5013 41.7904 48.4023C47.1733 47.1745 54.7001 44.5195 60.4148 38.8153C69.008 30.2378 70.6954 17.5677 70.9971 14.2393C71.0065 14.1366 70.9931 14.0331 70.9579 13.9361C70.9228 13.8391 70.8667 13.7511 70.7936 13.6782C70.7206 13.6053 70.6323 13.5493 70.5352 13.5142C70.438 13.4791 70.3344 13.4658 70.2315 13.4752ZM45.7974 24.6907C45.7974 36.6232 38.142 46.6076 36.0325 49.1323C35.9675 49.2103 35.8861 49.2731 35.794 49.3161C35.702 49.3592 35.6016 49.3815 35.4999 49.3815C35.3983 49.3815 35.2979 49.3592 35.2059 49.3161C35.1138 49.2731 35.0324 49.2103 34.9674 49.1323C32.8579 46.6076 25.2025 36.6232 25.2025 24.6907C25.2025 12.7582 32.858 2.77391 34.9675 0.249158C35.0325 0.171181 35.114 0.108438 35.206 0.0653795C35.298 0.0223206 35.3984 0 35.5001 0C35.6017 0 35.7021 0.0223206 35.7942 0.0653795C35.8862 0.108438 35.9676 0.171181 36.0326 0.249158C38.142 2.77391 45.7974 12.7583 45.7974 24.6907Z" fill="#676625"/>
</svg>
