<svg width="24" height="25" viewBox="0 0 24 25" fill="none" xmlns="http://www.w3.org/2000/svg">
<path d="M1 4.5C1 3.67157 1.29289 2.96447 1.87868 2.37868C2.46447 1.79289 3.17157 1.5 4 1.5H7C7.82843 1.5 8.53553 1.79289 9.12132 2.37868C9.70711 2.96447 10 3.67157 10 4.5V7.5C10 8.32843 9.70711 9.03553 9.12132 9.62132C8.53553 10.2071 7.82843 10.5 7 10.5H4C3.17157 10.5 2.46447 10.2071 1.87868 9.62132C1.29289 9.03553 1 8.32843 1 7.5V4.5ZM1 17.5C1 16.6716 1.29289 15.9645 1.87868 15.3787C2.46447 14.7929 3.17157 14.5 4 14.5H7C7.82843 14.5 8.53553 14.7929 9.12132 15.3787C9.70711 15.9645 10 16.6716 10 17.5V20.5C10 21.3284 9.70711 22.0355 9.12132 22.6213C8.53553 23.2071 7.82843 23.5 7 23.5H4C3.17157 23.5 2.46447 23.2071 1.87868 22.6213C1.29289 22.0355 1 21.3284 1 20.5V17.5ZM14 4.5C14 3.67157 14.2929 2.96447 14.8787 2.37868C15.4645 1.79289 16.1716 1.5 17 1.5H20C20.8284 1.5 21.5355 1.79289 22.1213 2.37868C22.7071 2.96447 23 3.67157 23 4.5V7.5C23 8.32843 22.7071 9.03553 22.1213 9.62132C21.5355 10.2071 20.8284 10.5 20 10.5H17C16.1716 10.5 15.4645 10.2071 14.8787 9.62132C14.2929 9.03553 14 8.32843 14 7.5V4.5ZM14 17.5C14 16.6716 14.2929 15.9645 14.8787 15.3787C15.4645 14.7929 16.1716 14.5 17 14.5H20C20.8284 14.5 21.5355 14.7929 22.1213 15.3787C22.7071 15.9645 23 16.6716 23 17.5V20.5C23 21.3284 22.7071 22.0355 22.1213 22.6213C21.5355 23.2071 20.8284 23.5 20 23.5H17C16.1716 23.5 15.4645 23.2071 14.8787 22.6213C14.2929 22.0355 14 21.3284 14 20.5V17.5Z" stroke="#8B9D83" stroke-width="2" stroke-linejoin="round"/>
</svg>
